# xmcd
#
# Track frame offsets: 
#        150
#        27087
#        60630
#        101993
#        129455
#        183683
#        232722
#
# Disc length: 4018 seconds
#
# Revision: 1
# Processed by: cddbd v1.5.2PL0 Copyright (c) Steve Scherf et al.
# Submitted via: ExactAudioCopy v0.95b3
#
DISCID=570fb007
DTITLE=Sonny Rollins - The Essential, The RCA Years [CD1]
DYEAR=2005
DGENRE=Jazz
TTITLE0=The Bridge
TTITLE1=God Bless the Child
TTITLE2=The Night Has a Thousand Eyes
TTITLE3=Don't Stop the Carnival 
TTITLE4=If Ever I Would Leave You
TTITLE5=Jungoso
TTITLE6=Doxy (Live)
EXTD=YEAR: 2005
EXTT0=
EXTT1=
EXTT2=
EXTT3=
EXTT4=
EXTT5=
EXTT6=
PLAYORDER=
